<svg width="300" height="300" viewBox="0 0 300 300" fill="none" xmlns="http://www.w3.org/2000/svg">
<rect width="300" height="300" rx="28" fill="#030712"/>
<g clip-path="url(#clip0_4_2)">
<g clip-path="url(#clip1_4_2)">
<g clip-path="url(#clip2_4_2)">
<g clip-path="url(#clip3_4_2)">
<g clip-path="url(#clip4_4_2)">
<path d="M149.655 281.403C130.649 281.403 115.213 266.351 115.213 247.745V246.177H131.279V233.006H114.898V213.564H183.467V233.006H167.086V246.177H183.467V247.745C183.467 266.246 168.346 281.403 149.655 281.403ZM118.468 249.313C119.308 265.41 132.959 278.267 149.76 278.267C166.456 278.267 179.582 265.724 180.317 249.313H163.936V229.87H180.317V216.7H118.048V229.87H134.429V249.313H118.468ZM182.627 200.498H114.793V198.93C114.793 175.411 103.137 163.704 90.8516 151.265C78.5659 138.93 67 126.042 67 101.06C67 52.2449 99.8821 18.3045 148.71 18.3045C172.336 18.3045 193.758 26.5623 208.984 41.7189C224.21 56.771 232.505 77.8858 232.505 101.3C232.505 125.655 219.694 138.408 207.304 150.742C194.598 163.39 182.627 175.306 182.627 198.93V200.498ZM117.838 197.362H179.477C180.002 173.425 192.708 160.777 204.993 148.547C217.489 136.108 229.355 124.296 229.355 101.3C229.355 54.9941 195.438 21.4404 148.71 21.4404C101.772 21.4404 69.0103 54.2623 69.0103 101.196C69.0103 124.819 80.666 136.526 93.0567 148.965C105.027 161.091 117.313 173.529 117.838 197.362Z" fill="white"/>
<path d="M164.628 131.19L159.529 114.07H138.355L133.256 131.19H125.737L144.232 71.1395H153.825L172.32 131.19H164.628ZM149.331 78.7964H148.553L140.083 107.789H157.8L149.331 78.7964Z" fill="white"/>
</g>
</g>
</g>
</g>
</g>
<defs>
<clipPath id="clip0_4_2">
<rect width="165.829" height="263.707" fill="white" transform="translate(67 18)"/>
</clipPath>
<clipPath id="clip1_4_2">
<rect width="703.21" height="263.098" fill="white" transform="translate(65.8601 18.3045)"/>
</clipPath>
<clipPath id="clip2_4_2">
<rect width="703.21" height="263.098" fill="white" transform="translate(65.8601 18.3045)"/>
</clipPath>
<clipPath id="clip3_4_2">
<rect width="166.645" height="263.098" fill="white" transform="translate(65.8601 18.3045)"/>
</clipPath>
<clipPath id="clip4_4_2">
<rect width="166.645" height="263.098" fill="white" transform="translate(65.8601 18.3045)"/>
</clipPath>
</defs>
</svg>
